<svg width="128" height="128" fill="none" xmlns="http://www.w3.org/2000/svg"><g filter="url(#Plugin icon - 2__a)"><mask id="Plugin icon - 2__b" style="mask-type:alpha" maskUnits="userSpaceOnUse" x="5" y="7" width="118" height="114"><path fill-rule="evenodd" clip-rule="evenodd" d="M63.499 7.025a4.99 4.99 0 0 0-4 1.406L25.581 41.708a5 5 0 0 0-.165.161L6.498 60.431a5 5 0 0 0 7.002 7.138L34.569 52.5 59 66.5V116a5 5 0 0 0 5.502 4.975 4.987 4.987 0 0 0 4-1.406l53-52a5 5 0 0 0-7.004-7.138L69 95V64.104a5.067 5.067 0 0 0 0-.2V12a5 5 0 0 0-5.501-4.975ZM59 55.672V32.5l-16 14 16 9.172Z" fill="#000"/></mask><g mask="url(#Plugin icon - 2__b)"><path fill="url(#Plugin icon - 2__c)" d="M0 0h128v128H0z"/></g></g><defs><linearGradient id="Plugin icon - 2__c" x1="12" y1="0" x2="121.5" y2="128" gradientUnits="userSpaceOnUse"><stop offset=".264" stop-color="#A42323"/><stop offset=".383" stop-color="#E38978"/><stop offset=".615" stop-color="#59E3E3"/><stop offset=".736" stop-color="#008BA3"/></linearGradient><filter id="Plugin icon - 2__a" x="3" y="7" width="122" height="118" filterUnits="userSpaceOnUse" color-interpolation-filters="sRGB"><feFlood flood-opacity="0" result="BackgroundImageFix"/><feColorMatrix in="SourceAlpha" values="0 0 0 0 0 0 0 0 0 0 0 0 0 0 0 0 0 0 127 0" result="hardAlpha"/><feOffset dy="2"/><feGaussianBlur stdDeviation="1"/><feComposite in2="hardAlpha" operator="out"/><feColorMatrix values="0 0 0 0 0 0 0 0 0 0 0 0 0 0 0 0 0 0 0.5 0"/><feBlend in2="BackgroundImageFix" result="effect1_dropShadow_603_2"/><feBlend in="SourceGraphic" in2="effect1_dropShadow_603_2" result="shape"/></filter></defs></svg>