<svg width="128" height="128" viewBox="0 0 128 128" fill="none" xmlns="http://www.w3.org/2000/svg">
<g clip-path="url(#clip0_301_2)">
<g filter="url(#filter0_d_301_2)">
<path d="M115.569 108.546C115.984 109.378 116.192 110.262 116.192 111.197C116.192 112.756 115.569 114.056 114.321 115.095C113.178 116.135 111.774 116.655 110.111 116.655C107.512 116.655 105.693 115.407 104.654 112.912L93.5826 87.6519H34.7975L23.5706 112.912C22.5311 115.407 20.712 116.655 18.1131 116.655C16.4499 116.655 14.9946 116.135 13.7471 115.095C12.4997 113.952 11.876 112.6 11.876 111.041C11.876 110.21 12.0839 109.378 12.4997 108.546L57.0953 9.37578C57.719 7.92045 58.6546 6.82895 59.902 6.10128C61.1494 5.37361 62.5008 5.00978 63.9561 5.00978C65.5154 5.00978 66.9188 5.42559 68.1662 6.25721C69.4136 6.98487 70.3492 8.0244 70.9729 9.37578L115.569 108.546ZM39.4754 77.0488H88.9047L64.1121 21.0704L39.4754 77.0488Z" fill="url(#paint0_linear_301_2)"/>
</g>
</g>
<defs>
<filter id="filter0_d_301_2" x="5.82472" y="5.00978" width="116.419" height="123.747" filterUnits="userSpaceOnUse" color-interpolation-filters="sRGB">
<feFlood flood-opacity="0" result="BackgroundImageFix"/>
<feColorMatrix in="SourceAlpha" type="matrix" values="0 0 0 0 0 0 0 0 0 0 0 0 0 0 0 0 0 0 127 0" result="hardAlpha"/>
<feOffset dy="6.05128"/>
<feGaussianBlur stdDeviation="3.02564"/>
<feComposite in2="hardAlpha" operator="out"/>
<feColorMatrix type="matrix" values="0 0 0 0 0 0 0 0 0 0 0 0 0 0 0 0 0 0 0.25 0"/>
<feBlend mode="normal" in2="BackgroundImageFix" result="effect1_dropShadow_301_2"/>
<feBlend mode="normal" in="SourceGraphic" in2="effect1_dropShadow_301_2" result="shape"/>
</filter>
<linearGradient id="paint0_linear_301_2" x1="5" y1="35.7853" x2="123" y2="76.6314" gradientUnits="userSpaceOnUse">
<stop offset="0.315239" stop-color="#008AA3"/>
<stop offset="0.691531" stop-color="#C75C52"/>
</linearGradient>
<clipPath id="clip0_301_2">
<rect width="128" height="128" fill="white"/>
</clipPath>
</defs>
</svg>
