<?xml version="1.0" standalone="no"?>
<!DOCTYPE svg PUBLIC "-//W3C//DTD SVG 20010904//EN"
 "http://www.w3.org/TR/2001/REC-SVG-20010904/DTD/svg10.dtd">
<svg version="1.0" xmlns="http://www.w3.org/2000/svg"
 width="700.000000pt" height="700.000000pt" viewBox="0 0 700.000000 700.000000"
 preserveAspectRatio="xMidYMid meet">
<metadata>
Created by potrace 1.14, written by Peter Selinger 2001-2017
</metadata>
<g transform="translate(0.000000,700.000000) scale(0.100000,-0.100000)"
fill="#000000" stroke="none">
<path d="M3367 6701 c-111 -37 -178 -95 -231 -201 -91 -180 -2467 -5482 -2476
-5526 -28 -130 59 -272 199 -325 82 -31 192 -29 263 3 59 27 115 78 142 130 9
18 156 346 325 728 l309 695 1613 0 1612 0 117 -265 c64 -146 205 -469 314
-718 217 -495 234 -523 331 -568 60 -29 187 -33 255 -9 145 51 232 192 203
329 -11 50 -2435 5460 -2489 5553 -32 55 -103 117 -181 155 -83 41 -215 49
-306 19z m822 -2382 c369 -834 671 -1522 671 -1528 0 -8 -366 -11 -1351 -11
-1289 0 -1351 1 -1347 18 13 50 1342 3052 1348 3045 4 -4 310 -690 679 -1524z"/>
</g>
</svg>
