<?xml version="1.0" standalone="no"?>
<!DOCTYPE svg PUBLIC "-//W3C//DTD SVG 20010904//EN"
 "http://www.w3.org/TR/2001/REC-SVG-20010904/DTD/svg10.dtd">
<svg version="1.0" xmlns="http://www.w3.org/2000/svg"
 width="512.000000pt" height="512.000000pt" viewBox="0 0 512.000000 512.000000"
 preserveAspectRatio="xMidYMid meet">
<metadata>
Created by potrace 1.14, written by Peter Selinger 2001-2017
</metadata>
<g transform="translate(0.000000,512.000000) scale(0.100000,-0.100000)"
fill="#000000" stroke="none">
<path d="M2436 4820 c-22 -11 -47 -28 -56 -37 -10 -10 -194 -191 -410 -403
-707 -692 -1332 -1306 -1571 -1541 -86 -85 -164 -166 -174 -182 -18 -28 -38
-160 -23 -151 4 3 8 -1 8 -8 0 -20 24 -68 33 -68 5 0 5 -9 2 -20 -4 -12 -2
-20 5 -20 6 0 8 5 5 10 -3 6 -1 10 4 10 6 0 11 -4 11 -10 0 -5 3 -9 8 -8 10 3
52 -25 52 -35 0 -4 -5 -5 -10 -2 -5 3 -10 1 -10 -5 0 -7 7 -9 16 -6 9 3 18 6
20 6 3 0 2 5 -2 12 -5 7 -3 8 7 2 16 -10 109 -13 109 -3 0 6 15 11 45 18 3 1
21 16 40 34 19 17 40 33 45 33 6 1 15 2 20 3 6 0 9 6 8 12 -2 6 13 20 32 31
19 11 37 24 38 29 2 5 8 6 14 3 6 -4 1 -12 -13 -20 -13 -7 -18 -13 -11 -14 7
0 11 -4 8 -9 -3 -5 1 -12 9 -15 13 -5 14 -2 4 16 -10 18 -9 20 6 15 9 -4 19
-7 21 -7 3 0 2 -5 -2 -12 -4 -7 -3 -8 5 -4 6 4 9 12 6 17 -4 5 -1 9 6 9 7 0 9
9 6 22 -7 25 10 61 24 53 5 -4 9 -2 9 4 0 6 7 7 17 4 10 -4 14 -2 9 5 -3 6 -1
14 5 18 7 4 9 3 6 -3 -4 -6 5 -15 18 -21 20 -9 23 -9 18 3 -3 8 -9 12 -14 9
-5 -3 -9 4 -9 15 0 12 5 21 11 21 5 0 7 -5 3 -12 -4 -7 16 11 45 39 35 34 58
50 69 46 9 -4 13 -2 9 4 -4 6 0 16 8 23 8 7 15 9 15 4 0 -5 7 -1 14 9 8 10 17
18 20 18 21 -3 26 0 20 11 -4 6 -3 8 4 4 5 -3 12 -1 14 6 3 9 6 9 11 0 5 -6
-4 -17 -20 -26 l-28 -14 25 1 c14 0 34 -3 45 -7 15 -6 15 -4 -3 6 -12 8 -20
17 -16 21 4 4 14 1 23 -6 12 -9 11 -7 -2 13 -24 34 -21 50 4 21 11 -13 23 -21
26 -17 4 4 1 11 -6 15 -7 5 -9 11 -5 13 5 3 3 3 -4 2 -6 -2 -12 1 -12 6 0 9
14 14 33 11 4 0 7 6 7 14 0 8 3 14 8 14 20 -3 32 2 30 14 -2 6 3 11 10 9 6 -1
12 2 12 8 0 6 6 9 13 8 6 -2 11 3 10 9 -2 10 3 10 22 1 13 -6 22 -15 18 -21
-3 -6 -1 -7 5 -3 6 4 9 13 5 21 -3 8 0 15 6 15 6 0 11 -4 11 -10 0 -5 5 -10
11 -10 8 0 9 4 0 13 -11 14 -5 27 11 27 5 0 6 -4 3 -10 -4 -6 1 -7 11 -3 11 4
13 8 6 11 -7 2 -10 8 -7 12 3 5 0 12 -6 16 -8 5 -9 3 -4 -7 5 -8 5 -11 1 -7
-4 3 -16 -2 -27 -13 -11 -11 -25 -17 -31 -13 -7 5 -8 3 -3 -6 5 -9 4 -11 -4
-6 -12 8 -6 26 10 26 5 0 35 20 66 44 31 25 61 43 65 40 5 -3 4 -12 -2 -19 -7
-9 -6 -16 5 -25 14 -11 14 -14 -1 -24 -13 -10 -13 -12 5 -12 11 0 18 4 15 7
-2 4 0 10 6 14 9 6 14 -7 11 -27 -1 -9 -1 -9 52 -13 42 -4 46 0 16 15 -15 9
-24 8 -36 -1 -12 -11 -14 -10 -13 2 5 29 0 38 -19 34 -26 -5 -48 20 -26 29 11
4 14 2 9 -6 -5 -7 -2 -9 8 -5 9 3 25 -3 37 -14 12 -11 25 -17 31 -14 5 3 12
-1 17 -8 4 -7 29 -24 56 -36 26 -13 47 -27 47 -32 0 -5 3 -8 8 -8 34 6 43 -18
16 -45 -8 -9 -11 -16 -5 -16 6 0 15 9 21 20 6 11 15 20 21 20 6 0 0 -15 -12
-32 -12 -18 -19 -30 -14 -26 4 4 15 2 24 -5 14 -11 15 -10 1 7 -13 18 -13 19
1 14 20 -8 46 6 30 16 -6 4 -11 2 -11 -4 0 -6 -5 -8 -11 -4 -8 4 -7 9 2 15 8
4 24 0 40 -11 14 -11 28 -17 31 -14 3 2 11 -2 17 -10 9 -11 9 -16 0 -22 -8 -5
-9 -3 -4 6 6 9 4 11 -5 5 -9 -6 -11 -4 -5 6 5 8 5 11 0 7 -4 -4 -14 -3 -22 3
-10 9 -13 8 -13 0 0 -7 -4 -10 -9 -6 -5 3 -13 0 -17 -7 -4 -7 -3 -10 1 -5 5 4
18 -1 29 -10 20 -17 20 -17 7 0 -8 10 -9 17 -3 17 10 0 27 -19 27 -30 0 -13
45 -61 45 -49 0 8 -9 20 -20 27 -20 12 -19 32 1 32 6 0 7 -4 4 -10 -3 -5 5
-15 19 -21 14 -7 32 -26 40 -43 9 -18 16 -24 16 -14 0 9 -4 20 -10 23 -5 3
-10 12 -10 18 1 7 9 1 20 -12 11 -12 18 -26 15 -30 -8 -14 30 -8 45 8 13 13
13 14 -2 9 -9 -4 -19 -4 -21 0 -2 4 -2 1 0 -6 1 -7 -2 -10 -8 -7 -6 4 -8 14
-5 22 3 8 2 12 -3 9 -5 -3 -14 1 -21 9 -7 8 -16 12 -21 9 -5 -3 -9 0 -9 5 0 6
-3 10 -7 10 -20 -3 -30 2 -30 16 0 8 4 15 9 15 4 0 8 -7 8 -16 0 -8 3 -13 8
-10 4 2 34 -11 67 -30 33 -18 70 -38 83 -44 12 -5 22 -15 22 -21 0 -6 7 -9 15
-5 8 3 28 -6 44 -19 16 -14 33 -25 39 -25 14 0 20 -20 16 -55 -2 -16 0 -25 4
-20 4 6 16 12 27 13 16 3 18 1 7 -9 -6 -7 -12 -17 -12 -23 0 -5 6 -1 14 10 12
15 17 17 27 7 11 -11 9 -13 -6 -14 -12 0 -15 -3 -7 -6 7 -3 20 1 29 8 14 12
15 11 10 -6 -4 -11 -2 -27 4 -35 8 -12 9 -10 4 9 l-7 23 30 -22 c17 -12 35
-20 40 -16 6 3 13 2 17 -4 3 -5 -2 -10 -11 -10 -10 0 -15 -3 -11 -6 12 -12 37
5 31 21 -4 9 -13 14 -21 11 -8 -3 -12 -2 -9 3 4 5 -2 7 -13 4 -10 -3 -22 0
-25 6 -4 6 -2 11 4 11 6 0 8 6 5 13 -4 6 0 4 8 -5 8 -10 16 -15 19 -12 3 3 28
-8 54 -25 27 -17 43 -31 37 -31 -7 0 -13 -5 -13 -11 0 -5 4 -8 8 -5 12 7 9
-335 -2 -353 -6 -9 -5 -12 1 -8 12 8 11 -533 -1 -552 -6 -9 -5 -12 1 -8 14 9
12 -371 -1 -392 -6 -9 -5 -12 1 -8 12 8 11 -533 -1 -552 -6 -10 -6 -12 2 -7 9
5 11 -8 10 -46 -1 -29 1 -59 5 -65 5 -8 3 -13 -3 -13 -7 0 -5 -7 5 -16 12 -13
13 -19 4 -30 -10 -12 -9 -13 5 -8 11 4 16 1 16 -10 0 -9 5 -16 10 -16 6 0 10
-7 8 -16 -2 -10 4 -19 12 -21 13 -4 13 -3 0 6 -8 6 -11 11 -7 11 11 0 62 -40
62 -48 1 -4 8 -20 17 -36 l15 -30 0 27 c0 16 -4 24 -10 20 -6 -4 -7 -1 -2 7 6
9 4 11 -6 5 -12 -7 -12 -5 -1 6 8 9 15 10 20 3 4 -5 41 -10 82 -9 73 0 75 -1
72 -23 -2 -21 -1 -22 14 -8 8 9 20 16 26 16 6 0 6 6 -2 15 -9 11 -9 15 -1 15
7 0 9 5 5 11 -4 8 0 8 15 0 25 -14 28 -26 4 -17 -17 6 -17 5 -1 -7 10 -8 14
-18 10 -23 -4 -5 -3 -5 2 -1 15 12 15 35 0 48 -8 6 -11 15 -8 20 7 12 34 11
34 -1 0 -5 -8 -7 -17 -4 -15 5 -16 4 -3 -5 20 -14 37 3 22 22 -14 17 -6 28 16
20 9 -4 13 -2 9 4 -8 13 39 73 56 72 8 0 8 -2 -1 -6 -6 -2 -9 -10 -6 -15 5 -7
2 -8 -7 -3 -11 7 -11 5 1 -11 8 -10 15 -21 17 -23 1 -2 2 6 2 18 1 11 1 29 2
39 0 10 10 24 22 32 20 12 21 12 8 -4 -8 -9 -11 -19 -8 -23 4 -3 1 -15 -5 -27
-10 -19 -10 -20 6 -7 11 9 14 21 10 35 -6 18 -5 19 8 8 12 -10 18 -9 28 3 9
10 9 15 1 15 -6 0 -11 -5 -11 -12 0 -6 -3 -8 -7 -4 -16 15 -10 40 14 62 25 23
46 26 70 11 6 -4 15 -2 19 4 4 8 3 9 -4 5 -7 -4 -12 -2 -12 4 0 7 -7 10 -15 7
-8 -4 -17 -2 -20 3 -4 6 1 10 9 10 9 0 15 3 13 8 -1 4 3 7 8 7 5 0 9 -3 8 -7
-1 -3 4 -9 12 -12 11 -4 12 0 5 18 -11 29 -2 40 18 23 13 -10 14 -9 5 8 -9 17
-5 24 18 43 20 16 27 19 23 8 -3 -9 -10 -16 -14 -16 -4 0 -11 -8 -14 -17 -6
-15 -4 -15 14 2 25 22 27 9 3 -19 -18 -21 -18 -21 4 -3 15 14 20 28 19 52 -2
19 0 32 4 30 4 -3 15 6 23 18 17 26 52 29 69 6 8 -11 9 -10 4 5 -5 14 -2 17
11 12 16 -5 16 -4 3 7 -33 28 -17 66 28 66 44 0 61 4 56 12 -2 4 2 10 8 12 9
4 10 6 1 6 -6 1 -15 -3 -18 -9 -3 -5 -11 -10 -17 -10 -6 0 -3 10 8 23 l19 22
-22 -19 c-13 -10 -20 -23 -17 -27 6 -10 -9 -12 -18 -3 -8 7 36 54 51 54 7 0
10 4 6 9 -3 5 0 13 6 17 7 4 9 3 6 -3 -4 -6 1 -14 10 -18 10 -3 19 -1 21 5 8
22 49 60 58 52 5 -4 1 2 -9 14 -16 20 -16 21 10 44 20 17 25 19 20 5 -4 -9 -7
-19 -7 -21 0 -3 -5 -2 -11 2 -8 4 -8 0 0 -15 14 -25 23 -28 14 -5 -5 14 -3 15
18 5 21 -11 22 -11 7 2 -18 14 -25 33 -10 23 4 -2 14 0 22 6 12 8 12 9 -2 4
-13 -4 -18 0 -18 14 0 25 19 36 33 20 9 -10 8 -12 -5 -7 -10 4 -18 2 -18 -3 0
-11 23 -13 33 -4 3 4 1 16 -5 28 -6 11 -7 18 -3 13 5 -4 16 5 26 19 10 16 19
22 23 15 9 -14 26 -14 26 0 0 5 -4 7 -10 4 -5 -3 -10 -1 -10 4 0 6 5 11 11 11
5 0 7 6 4 13 -4 6 1 3 9 -7 9 -11 16 -14 16 -7 0 7 5 9 10 6 6 -3 10 -1 10 5
0 7 -7 10 -15 6 -32 -12 -11 14 93 115 59 57 109 110 112 116 4 9 10 6 19 -8
11 -19 11 -21 -3 -16 -8 3 -18 2 -20 -2 -3 -5 3 -8 14 -7 11 0 21 6 21 11 2
25 20 44 37 39 14 -5 15 -4 2 5 -8 6 -12 11 -7 12 4 1 12 3 17 4 6 1 15 3 20
4 6 0 10 7 10 14 0 7 11 23 25 35 14 12 25 17 25 10 0 -6 3 -8 6 -5 4 4 2 13
-4 20 -7 8 -8 18 -4 22 4 5 1 5 -6 1 -7 -4 -10 -10 -8 -14 6 -10 -21 -32 -30
-24 -4 4 -4 1 1 -7 6 -10 4 -12 -5 -6 -9 6 -11 4 -5 -5 5 -8 4 -11 -2 -7 -6 4
-10 1 -9 -6 0 -6 -2 -12 -5 -12 -4 0 -16 -9 -28 -19 -12 -11 -21 -16 -21 -11
0 11 178 185 189 185 5 0 13 -5 16 -10 4 -6 11 -8 16 -4 5 3 7 10 3 15 -3 5
-9 7 -14 4 -5 -3 -11 -1 -15 5 -3 5 3 10 14 10 11 0 23 -5 26 -10 9 -15 26 -1
23 18 -2 10 3 16 10 14 8 -1 11 2 8 7 -3 5 1 12 10 15 13 5 15 1 10 -21 -5
-23 -4 -25 5 -10 6 10 8 24 5 32 -5 13 19 42 63 78 17 14 20 21 11 32 -6 7 -7
15 -3 17 5 1 18 16 31 32 12 16 22 25 22 21 0 -5 14 7 30 25 17 18 30 30 30
26 0 -12 -57 -75 -63 -70 -2 3 -12 -7 -21 -21 -9 -14 -12 -25 -7 -25 5 0 12 9
16 20 6 20 24 23 38 5 5 -6 6 -2 3 9 -7 20 30 70 45 61 4 -3 11 0 15 6 4 7 3
9 -3 6 -7 -4 -10 3 -9 17 0 14 6 22 13 19 7 -3 10 -10 6 -16 -4 -6 -1 -7 7 -2
10 6 12 4 6 -11 -6 -15 -5 -16 5 -7 10 10 9 16 -4 31 -16 17 -15 20 10 42 20
17 39 24 67 23 27 -1 35 1 25 8 -8 5 -22 6 -31 3 -10 -3 -18 -1 -18 4 0 15 31
24 44 13 7 -6 15 -4 23 4 10 10 9 14 -3 19 -24 9 -31 7 -14 -4 8 -5 10 -10 4
-10 -22 0 -23 14 -2 37 12 13 28 23 35 23 8 0 11 5 8 10 -3 6 -1 10 4 10 6 0
11 -3 11 -7 0 -12 -16 -35 -24 -34 -24 3 -28 -2 -12 -14 11 -8 25 -15 30 -14
6 0 5 3 -1 6 -9 3 -9 10 3 28 8 13 14 32 12 42 -2 12 3 18 15 16 10 0 17 4 14
10 -2 7 5 20 15 29 21 21 26 1 6 -21 -9 -9 -9 -12 -1 -7 6 3 13 3 16 -1 2 -5
2 -2 0 5 -2 9 4 11 20 7 17 -5 19 -4 7 4 -8 6 -16 20 -16 31 -1 11 1 19 3 16
9 -8 31 18 25 29 -3 6 2 4 11 -3 9 -8 22 -12 29 -9 8 4 7 6 -4 6 -10 1 -18 4
-18 7 0 4 51 58 113 120 80 81 119 114 137 115 16 1 19 3 8 6 -17 4 -14 33 4
33 5 0 6 -5 2 -12 -4 -6 -3 -8 4 -4 6 3 9 15 7 26 -2 11 0 20 5 20 5 0 7 7 4
15 -4 8 -2 15 3 15 6 0 6 24 1 62 -17 128 -111 202 -232 184 -42 -7 -68 -25
-421 -293 -49 -37 -200 -152 -335 -254 -135 -102 -335 -254 -445 -338 -110
-84 -213 -162 -229 -174 -16 -12 -50 -38 -75 -58 -25 -19 -111 -84 -191 -144
-80 -60 -154 -118 -164 -127 -11 -10 -25 -18 -32 -18 -7 0 -17 -7 -22 -16 -5
-10 -9 181 -8 477 1 276 5 500 10 508 6 9 5 12 -1 8 -15 -9 -14 613 1 632 7
10 8 13 0 8 -13 -8 -14 931 0 952 6 9 5 12 -1 8 -6 -4 -9 127 -10 361 0 249
-4 381 -12 410 -15 53 -78 117 -130 132 -58 16 -141 11 -185 -10z m-79 -1084
c1 -65 -1 -74 -15 -70 -15 5 -15 4 0 -6 15 -9 17 -26 16 -108 -1 -53 -6 -103
-12 -111 -8 -11 -8 -13 0 -8 8 5 11 -67 10 -263 0 -149 -1 -270 -3 -270 -1 0
-17 8 -35 18 -18 10 -53 30 -78 44 -147 82 -411 236 -447 260 -23 15 -46 28
-52 28 -6 0 -11 4 -11 9 0 11 50 9 70 -4 13 -8 13 -7 1 8 -8 10 -12 18 -10 20
39 22 52 27 61 21 7 -5 8 -3 4 5 -5 7 -14 10 -21 7 -8 -3 -16 -2 -18 2 -2 4
-2 1 0 -7 2 -9 -3 -12 -18 -8 -11 3 -18 3 -15 0 3 -3 -1 -12 -9 -19 -22 -22
-27 -16 -9 11 9 14 19 24 21 21 3 -2 19 11 35 30 17 19 33 32 36 29 3 -3 12 4
19 15 16 23 44 23 56 0 5 -10 6 -7 3 8 -3 15 0 22 7 19 7 -2 11 -15 10 -28 -2
-21 -2 -22 8 -6 6 10 7 23 2 30 -14 21 -9 42 19 70 22 22 27 24 32 10 6 -14 9
-14 22 5 15 21 50 20 37 -2 -3 -6 -2 -7 3 -3 5 5 9 16 9 25 0 9 6 16 14 14 12
-3 12 -1 1 13 -12 14 -10 15 13 11 15 -2 26 -2 25 2 -3 14 14 42 22 37 11 -7
6 22 -5 32 -4 4 -5 2 0 -6 6 -10 4 -12 -5 -6 -9 6 -11 4 -5 -5 5 -9 4 -11 -3
-6 -8 5 -10 2 -6 -9 4 -9 3 -15 -2 -13 -5 1 -22 -5 -39 -15 -16 -9 -24 -16
-17 -17 7 0 10 -5 6 -11 -4 -8 -9 -7 -16 2 -7 10 -8 9 -3 -6 3 -11 3 -16 -1
-12 -4 4 -16 0 -26 -10 -37 -34 -16 1 27 45 25 24 45 43 45 40 0 -2 23 18 51
44 28 26 58 48 66 48 8 0 11 -5 8 -10 -4 -6 -9 -8 -13 -6 -4 2 -8 -10 -9 -27
l-2 -32 13 31 c8 17 25 40 40 51 14 12 26 26 26 32 0 7 -11 0 -24 -14 -13 -14
-26 -22 -29 -18 -3 4 1 14 9 21 8 7 14 11 14 9 0 -2 20 16 45 40 25 24 46 43
48 43 1 0 3 -33 4 -74z m-424 -311 c-10 -7 -20 -12 -21 -10 -7 7 23 33 31 28
5 -3 0 -11 -10 -18z m217 -853 c8 -2 17 -8 18 -13 2 -5 7 -7 12 -4 10 6 40
-22 40 -38 0 -7 -5 -4 -11 6 -6 9 -14 15 -18 13 -4 -3 -17 3 -28 14 -16 14
-23 16 -33 7 -10 -9 -11 -9 -6 1 4 6 3 12 -2 12 -5 0 -9 7 -9 16 0 14 2 14 11
3 6 -8 18 -15 26 -17z m-1415 -62 c-11 -18 -22 -11 -20 13 4 33 5 34 16 14 5
-9 7 -22 4 -27z m3393 -842 c-31 -29 -66 -61 -79 -70 -13 -10 -18 -18 -11 -18
7 0 12 -5 12 -12 0 -8 -6 -6 -16 4 -15 15 -15 18 -1 32 9 9 21 16 27 16 6 0 8
5 5 10 -4 6 -1 9 7 8 7 -2 12 4 10 12 -2 8 -1 12 3 8 10 -9 45 24 38 35 -3 6
-1 7 4 4 6 -4 13 0 17 8 3 8 13 15 22 15 12 0 -2 -18 -38 -52z m-334 -323 c-4
-8 -8 -15 -10 -15 -2 0 -4 7 -4 15 0 8 4 15 10 15 5 0 7 -7 4 -15z m-445 -442
c-13 -16 -27 -32 -31 -37 -4 -5 -6 1 -5 13 1 11 7 21 14 21 7 0 12 3 12 8 -3
16 2 22 18 22 14 0 12 -5 -8 -27z m-172 -166 c0 -8 -6 -14 -14 -14 -14 0 -17
10 -6 20 10 11 20 8 20 -6z m-490 -457 c1 -11 -2 -18 -8 -15 -11 7 -12 35 -1
35 4 0 8 -9 9 -20z"/>
<path d="M2306 3761 c-18 -20 -10 -36 11 -20 9 8 13 8 13 1 0 -6 -8 -16 -17
-21 -10 -6 -13 -11 -7 -11 16 0 37 27 30 39 -3 5 -1 11 6 13 8 3 6 6 -4 10 -9
4 -23 -1 -32 -11z m24 5 c0 -2 -8 -10 -17 -17 -16 -13 -17 -12 -4 4 13 16 21
21 21 13z"/>
<path d="M2319 3693 c-12 -16 -12 -17 2 -6 9 7 20 9 24 5 5 -4 5 -1 1 6 -9 16
-11 15 -27 -5z"/>
<path d="M2259 3673 c-13 -16 -12 -17 4 -4 9 7 17 15 17 17 0 8 -8 3 -21 -13z"/>
<path d="M2193 3655 c-3 -9 -3 -18 -1 -21 3 -3 8 4 11 16 6 23 -1 27 -10 5z"/>
<path d="M2165 3640 c-3 -5 -1 -10 4 -10 6 0 11 5 11 10 0 6 -2 10 -4 10 -3 0
-8 -4 -11 -10z"/>
<path d="M2235 3641 c-3 -5 -2 -12 3 -15 5 -3 9 1 9 9 0 17 -3 19 -12 6z"/>
<path d="M2185 3580 c-3 -6 1 -7 9 -4 18 7 21 14 7 14 -6 0 -13 -4 -16 -10z"/>
<path d="M2155 3571 c-3 -5 -2 -12 3 -15 5 -3 9 1 9 9 0 17 -3 19 -12 6z"/>
<path d="M2045 3489 c-4 -6 -5 -12 -2 -15 2 -3 7 2 10 11 7 17 1 20 -8 4z"/>
<path d="M1984 3468 c-10 -12 -13 -18 -6 -14 6 4 12 3 12 -2 0 -15 29 -22 36
-9 4 7 4 9 -1 5 -4 -4 -14 -3 -22 3 -10 9 -10 15 -2 25 19 23 4 16 -17 -8z"/>
<path d="M1880 3380 c-8 -16 -6 -21 12 -31 13 -6 20 -8 16 -4 -4 4 -3 17 3 29
9 19 9 19 -4 4 -19 -24 -30 -23 -17 2 6 11 8 20 6 20 -3 0 -10 -9 -16 -20z"/>
<path d="M1837 3352 c-16 -17 -15 -18 14 -18 26 0 29 1 15 11 -9 7 -13 15 -9
18 3 4 4 7 1 7 -3 0 -12 -8 -21 -18z"/>
<path d="M1879 3313 c-13 -16 -12 -17 4 -4 9 7 17 15 17 17 0 8 -8 3 -21 -13z"/>
<path d="M1830 3279 c0 -5 5 -7 10 -4 6 3 10 8 10 11 0 2 -4 4 -10 4 -5 0 -10
-5 -10 -11z"/>
<path d="M1358 2987 c-25 -20 -26 -24 -12 -42 13 -17 16 -18 24 -5 6 8 8 21 5
29 -3 7 0 20 6 27 17 20 8 17 -23 -9z m9 -33 c-9 -9 -28 6 -21 18 4 6 10 6 17
-1 6 -6 8 -13 4 -17z"/>
<path d="M1540 2906 c14 -18 13 -18 -10 -11 -29 9 -25 3 9 -15 15 -8 21 -8 17
-1 -4 6 -2 11 5 11 7 0 9 -8 6 -21 -3 -12 -3 -18 0 -15 4 3 12 1 20 -5 7 -6
13 -8 13 -3 0 5 4 2 10 -6 5 -8 11 -12 13 -10 2 3 -4 19 -15 35 -18 28 -19 28
-13 5 l6 -25 -13 23 c-8 12 -25 30 -38 39 -24 16 -24 16 -10 -1z"/>
<path d="M1330 2899 c0 -5 5 -7 10 -4 6 3 10 8 10 11 0 2 -4 4 -10 4 -5 0 -10
-5 -10 -11z"/>
<path d="M1221 2876 c-9 -11 -8 -15 5 -20 21 -8 24 -8 24 5 0 5 -5 7 -12 3 -8
-5 -9 -2 -5 9 8 21 3 22 -12 3z"/>
<path d="M1183 2864 c3 -6 -5 -21 -18 -32 -29 -25 -31 -37 -9 -46 14 -5 15 -4
5 7 -9 11 -8 17 3 27 9 6 20 9 25 5 7 -3 8 0 5 10 -5 11 -2 14 12 9 20 -8 19
-6 -10 16 -11 8 -17 10 -13 4z"/>
<path d="M1534 2845 c0 -13 3 -22 7 -19 8 4 6 30 -2 38 -3 3 -5 -5 -5 -19z"/>
<path d="M1576 2827 c3 -10 9 -15 12 -12 3 3 0 11 -7 18 -10 9 -11 8 -5 -6z"/>
<path d="M1210 2819 c0 -5 5 -7 10 -4 6 3 10 8 10 11 0 2 -4 4 -10 4 -5 0 -10
-5 -10 -11z"/>
<path d="M1193 2795 c0 -8 4 -12 9 -9 5 3 6 10 3 15 -9 13 -12 11 -12 -6z"/>
<path d="M1730 2740 c0 -5 5 -10 11 -10 5 0 7 5 4 10 -3 6 -8 10 -11 10 -2 0
-4 -4 -4 -10z"/>
<path d="M1005 2732 c-3 -4 -11 -7 -16 -7 -5 0 -9 -3 -9 -7 0 -5 0 -12 0 -18
0 -5 6 -10 14 -10 8 0 16 -3 19 -7 2 -5 3 -3 2 2 -3 10 20 36 30 34 3 0 10 2
16 5 5 2 4 3 -3 2 -7 -2 -20 0 -29 5 -9 5 -20 5 -24 1z m7 -24 c-9 -9 -15 -9
-24 1 -9 10 -9 12 -1 7 6 -3 15 -1 18 5 4 5 10 8 13 4 3 -3 0 -11 -6 -17z"/>
<path d="M901 2655 c-23 -25 -41 -50 -40 -57 0 -10 2 -10 5 -1 3 7 11 10 19 7
7 -3 16 -1 20 5 3 7 0 8 -9 5 -23 -9 -20 3 9 34 14 15 25 22 25 16 0 -5 -5
-15 -11 -21 -8 -8 -7 -13 2 -18 7 -5 10 -4 6 2 -4 6 4 22 17 36 18 19 20 27
11 31 -8 3 -32 -15 -54 -39z"/>
<path d="M1917 2658 c-15 -28 -15 -29 -1 -10 9 12 21 22 26 22 6 0 4 -8 -3
-17 -13 -16 -12 -17 4 -4 13 10 15 17 6 27 -15 18 -12 19 -32 -18z"/>
<path d="M950 2650 c-9 -16 -8 -18 5 -14 8 3 12 11 8 17 -4 6 0 8 11 4 10 -4
15 -3 11 3 -10 16 -23 12 -35 -10z"/>
<path d="M1965 2654 c-13 -31 -14 -44 -3 -44 6 0 8 7 5 15 -4 8 -2 17 2 20 5
3 12 -2 15 -11 3 -8 11 -12 17 -9 16 10 51 -25 39 -40 -7 -8 -5 -12 5 -12 8 0
12 5 8 10 -3 5 3 6 16 2 14 -4 21 -2 21 6 0 7 -3 9 -6 6 -4 -3 -15 5 -26 18
-11 14 -24 23 -29 20 -5 -4 -9 -1 -9 6 0 10 -3 10 -12 1 -10 -10 -15 -8 -24 9
-10 20 -11 20 -19 3z m86 -41 c13 -16 12 -17 -3 -4 -10 7 -18 15 -18 17 0 8 8
3 21 -13z"/>
<path d="M1875 2649 c-4 -6 -5 -12 -2 -15 2 -3 7 2 10 11 7 17 1 20 -8 4z"/>
<path d="M1997 2603 c15 -3 20 -9 17 -21 -5 -14 -4 -14 4 -2 14 19 6 30 -21
29 l-22 -2 22 -4z"/>
<path d="M757 2558 c-2 -7 -1 -22 3 -33 6 -16 8 -13 7 13 0 35 -2 39 -10 20z"/>
<path d="M783 2547 c0 -12 1 -17 4 -10 2 7 12 9 21 6 18 -6 17 -5 -8 14 -13
10 -16 8 -17 -10z"/>
<path d="M810 2566 c0 -2 7 -7 16 -10 8 -3 12 -2 9 4 -6 10 -25 14 -25 6z"/>
<path d="M2070 2560 c0 -5 5 -10 10 -10 6 0 10 5 10 10 0 6 -4 10 -10 10 -5 0
-10 -4 -10 -10z"/>
<path d="M656 2483 c-4 -5 -12 -8 -17 -8 -5 0 -9 -4 -10 -10 -1 -18 -22 -36
-34 -31 -7 2 -27 -11 -45 -29 -18 -19 -36 -32 -40 -30 -3 2 -14 -5 -23 -15
-10 -12 -26 -18 -44 -16 -15 2 -36 0 -45 -5 -11 -6 -18 -5 -21 4 -4 9 -6 9 -6
0 -1 -7 -6 -13 -12 -13 -5 0 -7 5 -3 12 4 7 3 8 -4 4 -14 -8 -5 -33 14 -40 9
-3 12 -11 8 -17 -5 -8 -3 -9 5 -4 9 5 10 10 2 18 -18 18 -13 31 6 16 11 -10
14 -10 9 -1 -4 6 -2 12 3 12 6 0 11 -4 11 -10 0 -5 4 -10 10 -10 5 0 9 5 7 11
-1 6 4 14 11 16 7 3 10 -1 6 -10 -3 -8 2 -17 12 -21 14 -5 15 -4 4 9 -8 9 -8
15 -2 15 6 0 14 -5 17 -10 10 -16 25 -1 18 18 -5 14 -3 15 8 5 7 -7 18 -13 24
-13 5 0 2 5 -7 11 -24 13 -23 24 2 26 11 1 18 -2 15 -8 -4 -5 -1 -9 5 -9 7 0
9 8 5 20 -5 16 -3 19 12 14 13 -4 14 -3 5 3 -10 7 -8 14 9 28 20 19 20 19 14
-10 l-7 -30 14 25 c8 14 20 26 28 26 8 1 20 3 25 4 6 1 14 2 18 1 5 -1 5 4 1
10 -4 8 1 9 17 5 21 -6 22 -6 6 4 -15 9 -22 8 -38 -6 -10 -9 -19 -12 -19 -6 0
6 10 18 22 26 12 9 19 18 17 21 -3 3 -9 2 -13 -2z"/>
<path d="M2304 2446 c-1 -17 1 -22 3 -12 4 13 7 15 13 7 5 -10 9 -9 13 3 4 9
-1 19 -11 25 -14 8 -17 4 -18 -23z"/>
<path d="M216 2417 c3 -10 9 -15 12 -12 3 3 0 11 -7 18 -10 9 -11 8 -5 -6z"/>
<path d="M2330 2406 c0 -8 4 -17 9 -20 5 -4 7 3 4 14 -6 23 -13 26 -13 6z"/>
<path d="M614 2395 c3 -23 12 -26 13 -5 1 11 -2 20 -7 20 -4 0 -7 -7 -6 -15z"/>
<path d="M4856 2388 c3 -4 11 -5 19 -1 21 7 19 12 -4 10 -11 0 -18 -5 -15 -9z"/>
<path d="M284 2381 c7 -10 3 -12 -14 -6 -20 6 -21 5 -9 -8 14 -14 33 -17 44
-5 3 3 -2 11 -12 19 -14 11 -15 11 -9 0z"/>
<path d="M4801 2345 c-35 -40 -38 -47 -16 -39 8 4 12 10 9 15 -3 5 0 9 5 9 6
0 11 -4 11 -10 0 -5 5 -10 11 -10 5 0 8 4 5 9 -3 5 1 14 9 21 16 14 20 40 6
40 -5 0 -23 -16 -40 -35z m29 0 c-7 -9 -15 -13 -18 -10 -3 2 1 11 8 20 7 9 15
13 18 10 3 -2 -1 -11 -8 -20z"/>
<path d="M560 2366 c0 -2 7 -7 16 -10 8 -3 12 -2 9 4 -6 10 -25 14 -25 6z"/>
<path d="M278 2333 c7 -3 16 -2 19 1 4 3 -2 6 -13 5 -11 0 -14 -3 -6 -6z"/>
<path d="M4853 2325 c0 -8 4 -12 9 -9 5 3 6 10 3 15 -9 13 -12 11 -12 -6z"/>
<path d="M310 2320 c0 -5 10 -14 23 -20 20 -10 20 -10 5 3 -10 8 -15 17 -11
20 3 4 1 7 -5 7 -7 0 -12 -4 -12 -10z"/>
<path d="M4754 2293 c4 -7 -4 -18 -22 -27 -16 -8 -33 -21 -39 -28 -9 -10 -5
-13 20 -14 18 -1 24 1 15 3 -25 6 -22 16 6 29 18 9 28 9 37 0 7 -6 7 -2 -1 8
-8 11 -13 21 -12 23 2 3 0 8 -4 11 -4 4 -4 2 0 -5z"/>
<path d="M4790 2290 c-9 -6 -10 -10 -3 -10 6 0 15 5 18 10 8 12 4 12 -15 0z"/>
<path d="M4665 2200 c-10 -17 12 -24 27 -9 16 17 15 18 -3 16 -11 -1 -22 -4
-24 -7z"/>
<path d="M4700 2180 c-9 -6 -10 -10 -3 -10 6 0 15 5 18 10 8 12 4 12 -15 0z"/>
<path d="M4599 2133 c-13 -15 -12 -15 7 -5 12 6 25 8 29 4 5 -4 5 -1 1 6 -10
16 -21 15 -37 -5z"/>
<path d="M4520 2060 c7 -4 10 -12 7 -17 -3 -5 0 -10 8 -10 8 0 13 3 10 5 -3 3
-1 10 4 16 6 7 1 12 -16 13 -17 1 -21 -2 -13 -7z"/>
<path d="M4367 1916 c-4 -9 -1 -18 5 -22 7 -5 8 -2 3 6 -6 10 -4 12 8 7 9 -3
19 -1 23 6 4 7 4 9 -1 5 -4 -4 -14 -3 -20 2 -9 8 -14 6 -18 -4z"/>
<path d="M4334 1889 c-4 -7 -3 -9 4 -5 5 3 13 0 15 -6 4 -9 6 -10 6 -1 1 17
-16 25 -25 12z"/>
<path d="M4379 1873 c-13 -17 -13 -17 6 -3 11 8 22 16 24 17 2 2 0 3 -6 3 -6
0 -17 -8 -24 -17z"/>
<path d="M4290 1800 c0 -4 7 -7 15 -6 23 3 26 12 5 13 -11 1 -20 -2 -20 -7z"/>
<path d="M4270 1780 c0 -5 5 -10 11 -10 5 0 7 5 4 10 -3 6 -8 10 -11 10 -2 0
-4 -4 -4 -10z"/>
<path d="M4216 1721 c-4 -5 3 -7 14 -4 23 6 26 13 6 13 -8 0 -17 -4 -20 -9z"/>
<path d="M4160 1660 c-8 -5 -12 -12 -9 -15 4 -3 12 1 19 10 14 17 11 19 -10 5z"/>
<path d="M4130 1636 c0 -8 4 -17 9 -20 5 -4 7 3 4 14 -6 23 -13 26 -13 6z"/>
<path d="M3960 1513 c-12 -16 -24 -26 -27 -25 -2 2 -8 0 -11 -4 -4 -4 -1 -4 6
0 9 5 12 3 10 -6 -2 -7 2 -14 7 -15 6 -1 9 5 7 14 -2 8 1 12 7 8 7 -4 8 1 4
12 -6 16 -5 16 10 4 11 -9 17 -10 17 -2 0 6 -5 11 -11 11 -5 0 -7 5 -4 10 5 8
12 7 23 -2 15 -12 16 -11 3 5 -17 22 -16 22 -41 -10z"/>
<path d="M4029 1523 c-13 -16 -12 -17 4 -4 16 13 21 21 13 21 -2 0 -10 -8 -17
-17z"/>
<path d="M3975 1469 c-4 -6 -5 -12 -2 -15 2 -3 7 2 10 11 7 17 1 20 -8 4z"/>
<path d="M3913 1405 c0 -8 4 -12 9 -9 5 3 6 10 3 15 -9 13 -12 11 -12 -6z"/>
<path d="M3720 1285 c-7 -8 -9 -15 -4 -15 5 0 -2 -9 -16 -20 -14 -11 -20 -20
-14 -20 6 0 17 7 24 15 15 18 34 20 24 3 -4 -7 -3 -10 1 -5 13 11 16 45 6 51
-5 3 -14 -1 -21 -9z m20 -5 c0 -5 -5 -10 -11 -10 -5 0 -7 5 -4 10 3 6 8 10 11
10 2 0 4 -4 4 -10z"/>
<path d="M3653 1218 c-19 -25 -24 -38 -14 -38 6 0 11 7 11 15 0 18 11 19 30 3
12 -11 12 -10 0 7 -8 11 -15 21 -16 23 -1 1 -6 -3 -11 -10z"/>
<path d="M3705 1200 c-3 -6 1 -7 9 -4 18 7 21 14 7 14 -6 0 -13 -4 -16 -10z"/>
<path d="M3601 1166 c-7 -8 -4 -15 10 -24 11 -7 19 -8 19 -2 0 5 -4 10 -10 10
-5 0 -10 4 -10 10 0 5 7 7 15 4 8 -4 15 -4 15 -1 0 12 -29 15 -39 3z"/>
<path d="M3650 1140 c0 -5 5 -10 11 -10 5 0 7 5 4 10 -3 6 -8 10 -11 10 -2 0
-4 -4 -4 -10z"/>
<path d="M3565 1130 c-4 -6 1 -7 11 -3 11 4 15 2 11 -4 -4 -6 0 -13 8 -17 16
-6 16 14 0 26 -14 10 -23 10 -30 -2z"/>
<path d="M3576 1082 c-3 -5 1 -9 9 -9 8 0 12 4 9 9 -3 4 -7 8 -9 8 -2 0 -6 -4
-9 -8z"/>
<path d="M3484 1048 c-4 -7 -4 -10 1 -6 4 4 15 2 24 -5 14 -11 14 -10 2 6 -16
20 -18 21 -27 5z"/>
<path d="M3481 1022 c9 -4 15 -15 13 -25 -1 -9 1 -15 6 -12 15 9 3 40 -16 42
-15 2 -16 1 -3 -5z"/>
<path d="M3530 1021 c0 -6 4 -13 10 -16 6 -3 7 1 4 9 -7 18 -14 21 -14 7z"/>
<path d="M3310 831 c0 -6 4 -13 10 -16 6 -3 7 1 4 9 -7 18 -14 21 -14 7z"/>
<path d="M3195 770 c-3 -5 -1 -10 4 -10 6 0 11 5 11 10 0 6 -2 10 -4 10 -3 0
-8 -4 -11 -10z"/>
<path d="M3207 739 c7 -7 15 -10 18 -7 3 3 -2 9 -12 12 -14 6 -15 5 -6 -5z"/>
<path d="M3127 703 c-3 -5 -1 -17 4 -28 6 -17 7 -16 6 8 -1 28 -3 32 -10 20z"/>
<path d="M3155 669 c-4 -6 -5 -12 -2 -15 2 -3 7 2 10 11 7 17 1 20 -8 4z"/>
<path d="M3103 655 c-3 -9 -3 -18 -1 -21 3 -3 8 4 11 16 6 23 -1 27 -10 5z"/>
<path d="M2924 499 c-9 -10 -14 -22 -11 -26 4 -3 7 0 7 8 0 12 2 12 10 -1 5
-8 13 -11 17 -6 4 5 2 11 -5 13 -6 3 -10 9 -7 13 3 5 12 7 20 3 8 -3 15 -3 15
0 0 15 -31 13 -46 -4z"/>
<path d="M2801 381 c-6 -10 -7 -21 -3 -25 3 -4 0 -11 -8 -17 -12 -7 -10 -8 7
-6 12 2 26 7 30 12 5 4 3 5 -4 2 -15 -9 -23 14 -11 36 5 9 6 17 4 17 -3 0 -10
-8 -15 -19z"/>
<path d="M2376 337 c3 -10 9 -15 12 -12 3 3 0 11 -7 18 -10 9 -11 8 -5 -6z"/>
<path d="M2386 302 c-3 -4 4 -9 15 -9 23 -2 25 3 4 10 -8 4 -16 3 -19 -1z"/>
<path d="M2433 289 c-1 -10 5 -19 13 -19 17 0 18 14 1 28 -10 8 -13 6 -14 -9z"/>
<path d="M2523 237 c0 -19 2 -25 7 -16 5 7 7 16 4 20 -2 4 0 10 6 14 5 3 10 1
10 -5 0 -6 5 -8 10 -5 17 10 11 -7 -6 -20 -15 -10 -14 -12 7 -10 13 1 29 -2
36 -7 18 -15 37 0 22 18 -6 8 -8 18 -4 22 4 4 10 1 12 -5 3 -7 10 -13 16 -13
5 0 7 3 4 7 -4 3 -1 13 6 22 11 14 10 14 -5 2 -10 -7 -18 -9 -18 -4 0 5 -7 10
-15 10 -8 0 -12 -4 -9 -8 2 -4 -5 -7 -16 -6 -11 1 -20 4 -20 7 0 3 -10 6 -23
6 -18 0 -23 -6 -24 -29z m92 -25 c-2 -3 -11 0 -18 6 -8 7 -17 9 -21 5 -4 -4
-4 1 0 10 6 17 8 17 25 1 11 -10 17 -19 14 -22z"/>
<path d="M2495 200 c-3 -5 -1 -10 4 -10 6 0 11 5 11 10 0 6 -2 10 -4 10 -3 0
-8 -4 -11 -10z"/>
</g>
</svg>
