<svg viewBox="0 0 128 128" fill="none" xmlns="http://www.w3.org/2000/svg"><path fill-rule="evenodd" clip-rule="evenodd" d="M63.499 7.025a4.99 4.99 0 0 0-4 1.406L25.581 41.708a5 5 0 0 0-.165.161L6.498 60.431a5 5 0 0 0 7.002 7.138L34.569 52.5 59 66.5V116a5 5 0 0 0 5.502 4.975 4.987 4.987 0 0 0 4-1.406l53-52a5 5 0 0 0-7.004-7.138L69 95V64.104a5.067 5.067 0 0 0 0-.2V12a5 5 0 0 0-5.501-4.975ZM59 55.672V32.5l-16 14 16 9.172Z" fill="url(#gradient)"/><defs><linearGradient id="gradient" x1="16.063" y1="7" x2="113.01" y2="124.304" gradientUnits="userSpaceOnUse"><stop offset=".264" stop-color="#A42323"/><stop offset=".383" stop-color="#E38978"/><stop offset=".615" stop-color="#59E3E3"/><stop offset=".736" stop-color="#008BA3"/></linearGradient></defs></svg>